<?xml version="1.0" standalone="no"?>
<!DOCTYPE svg PUBLIC "-//W3C//DTD SVG 20010904//EN"
 "http://www.w3.org/TR/2001/REC-SVG-20010904/DTD/svg10.dtd">
<svg version="1.0" xmlns="http://www.w3.org/2000/svg"
 width="512.000000pt" height="512.000000pt" viewBox="0 0 512.000000 512.000000"
 preserveAspectRatio="xMidYMid meet">
<metadata>
Created by potrace 1.11, written by Peter Selinger 2001-2013
</metadata>
<g transform="translate(0.000000,512.000000) scale(0.100000,-0.100000)"
fill="#000000" stroke="none">
<path d="M3307 5113 c-3 -2 -1217 -14 -1852 -18 -275 -2 -516 -6 -535 -10 -19
-3 -62 -11 -95 -16 -359 -62 -529 -285 -572 -754 -9 -94 -9 -457 0 -885 4
-168 9 -449 12 -625 3 -176 8 -363 10 -415 2 -52 7 -176 10 -275 3 -99 7 -225
10 -280 3 -55 7 -147 10 -205 16 -310 23 -441 30 -525 2 -33 7 -91 10 -130 10
-134 23 -268 36 -370 30 -244 51 -326 104 -411 31 -48 95 -108 142 -133 32
-16 130 -41 198 -49 73 -9 655 -8 965 2 306 9 620 15 1090 21 1527 20 1604 24
1714 92 124 77 218 226 270 425 28 104 33 142 41 278 34 613 69 3093 50 3525
-7 166 -30 287 -76 397 -56 136 -137 231 -249 291 -131 71 -129 71 -758 72
-310 0 -564 -1 -565 -2z m878 -137 c107 -13 119 -14 160 -21 155 -26 316 -127
363 -228 18 -38 37 -114 46 -187 14 -103 22 -205 31 -380 6 -121 7 -906 1
-1110 -8 -281 -18 -573 -22 -665 -4 -102 -12 -576 -15 -860 -1 -104 -4 -193
-6 -197 -2 -4 -18 2 -36 12 -41 26 -51 25 -70 -4 -38 -57 -34 -70 38 -122 l66
-49 -3 -97 c-2 -53 -7 -100 -11 -104 -3 -4 -27 11 -53 32 -25 21 -63 52 -85
68 -38 29 -39 29 -60 10 -26 -23 -48 -65 -42 -80 2 -7 46 -47 98 -89 52 -43
96 -84 99 -91 12 -31 -61 -184 -88 -184 -8 0 -47 37 -88 81 -108 121 -138 150
-146 146 -94 -44 -93 -47 39 -199 87 -98 102 -122 94 -147 -9 -28 -83 -93
-103 -89 -8 2 -60 59 -114 128 -139 177 -145 183 -182 176 -17 -4 -39 -15 -49
-25 -17 -17 -15 -21 65 -112 111 -127 162 -189 166 -200 3 -6 -41 -9 -108 -7
l-113 3 -54 90 c-30 50 -76 122 -102 160 -44 67 -47 70 -84 68 -20 -1 -48 -8
-61 -15 l-24 -13 55 -95 c30 -52 71 -123 90 -158 l34 -62 -84 0 -84 0 -32 63
c-63 120 -143 247 -157 248 -45 4 -87 0 -104 -11 -16 -10 -8 -30 42 -105 45
-69 111 -196 104 -202 -9 -9 -559 -15 -1476 -17 -715 -1 -855 2 -940 19 -14 3
-38 8 -55 11 -111 20 -266 94 -352 168 -96 83 -180 255 -209 426 -3 14 -9 48
-14 75 -6 28 -13 68 -15 89 -3 22 -7 51 -10 65 -16 96 -48 427 -60 631 -14
230 -20 373 -30 700 -7 265 -11 395 -22 665 -10 262 -10 975 0 1090 13 152 23
217 47 323 26 111 61 181 114 230 93 86 204 119 466 137 25 2 542 6 1150 10
607 3 1105 7 1106 8 6 6 838 -1 889 -7z"/>
<path d="M989 4736 c-2 -2 -29 -6 -59 -9 -108 -12 -173 -45 -204 -105 -19 -37
-45 -127 -54 -187 -12 -87 -9 -382 5 -396 15 -15 118 -20 150 -8 16 6 21 14
17 31 -7 37 -7 257 1 323 9 73 40 142 78 169 26 19 43 21 180 21 l152 0 3 65
c1 36 -2 72 -8 80 -7 12 -36 15 -133 17 -68 1 -126 1 -128 -1z"/>
<path d="M2407 4344 c-1 -1 -31 -5 -67 -9 -36 -3 -81 -8 -100 -10 -19 -2 -62
-7 -95 -10 -70 -6 -130 -14 -165 -20 -14 -3 -50 -7 -80 -10 -72 -8 -415 -63
-460 -75 -19 -5 -46 -11 -60 -14 -38 -7 -83 -26 -103 -43 -20 -18 -43 -92 -53
-168 -12 -95 -2 -1155 21 -2200 14 -625 17 -651 72 -702 37 -35 62 -44 178
-63 52 -8 723 -6 830 4 33 2 96 7 140 11 44 3 94 8 110 10 17 3 53 7 80 10 28
3 75 10 105 15 30 5 71 12 90 15 148 25 360 103 429 159 173 140 216 291 214
741 -2 323 -28 468 -115 636 -63 124 -164 228 -275 286 -29 16 -52 30 -50 33
93 181 138 315 154 457 11 100 7 319 -6 385 -7 32 -12 59 -11 60 0 2 -8 29
-19 61 -78 227 -236 375 -458 428 -41 10 -298 21 -306 13z m227 -289 c73 -18
115 -38 177 -85 137 -102 259 -326 259 -473 0 -97 -51 -248 -161 -475 -32 -67
-59 -134 -59 -148 0 -43 27 -80 71 -98 102 -41 219 -140 283 -241 53 -83 81
-158 101 -275 3 -19 8 -46 10 -60 41 -242 49 -469 22 -597 -33 -150 -108 -251
-232 -309 -65 -31 -215 -76 -295 -88 -19 -3 -44 -7 -55 -10 -11 -2 -49 -7 -85
-10 -36 -4 -76 -9 -90 -11 -14 -3 -54 -7 -90 -10 -36 -3 -96 -7 -135 -10 -138
-10 -303 -15 -475 -16 -170 0 -228 5 -242 19 -3 4 -9 113 -13 242 -3 129 -8
296 -10 370 -13 421 -16 536 -21 740 -2 124 -7 290 -9 370 -9 323 -16 1026
-10 1043 12 29 162 66 410 101 167 23 168 24 270 31 50 4 91 8 93 10 9 8 245
0 286 -10z"/>
<path d="M2054 3660 c-38 -9 -80 -22 -93 -29 l-23 -13 7 -206 c3 -114 8 -223
10 -242 2 -19 6 -87 10 -150 8 -152 15 -203 25 -214 23 -23 249 -9 370 24 205
55 290 180 277 409 -8 161 -82 338 -162 389 -83 53 -272 68 -421 32z m253
-104 c122 -25 205 -152 180 -276 -21 -105 -199 -241 -320 -244 l-51 -1 -9 40
c-11 46 -15 460 -5 470 19 19 135 25 205 11z"/>
<path d="M2378 2315 c-2 -2 -37 -6 -78 -9 -96 -9 -216 -34 -252 -52 -37 -19
-43 -64 -43 -314 1 -324 23 -543 55 -560 29 -16 72 -21 185 -25 225 -6 400 37
531 133 159 116 181 374 53 636 -75 153 -134 187 -336 191 -62 1 -114 1 -115
0z m224 -154 c33 -12 65 -57 88 -125 70 -197 39 -344 -84 -408 -36 -19 -59
-22 -186 -23 -169 -2 -225 7 -241 38 -14 25 -18 390 -6 449 4 20 15 39 25 44
62 26 352 45 404 25z"/>
<path d="M4037 1775 c-61 -15 -173 -92 -235 -160 -71 -77 -96 -134 -95 -220 0
-77 19 -126 77 -198 37 -47 144 -119 206 -139 105 -34 239 -16 321 44 58 42
75 63 106 127 84 175 -14 434 -197 524 -66 32 -118 38 -183 22z m151 -249 c63
-33 122 -124 122 -188 0 -153 -150 -231 -284 -149 -114 71 -131 203 -40 295
63 62 135 77 202 42z"/>
</g>
</svg>
